<svg version="1.1" xmlns="http://www.w3.org/2000/svg" style="display: block;"
    viewBox="0 0 2048 2048" width="1438" height="1438" preserveAspectRatio="none">
    <rect width="2048" height="2048" rx="450" fill="rgb(28,29,29)" />
    <path transform="translate(0,0)" fill="rgb(215,130,43)"
        d="M 539.479 573.43 C 544.965 572.846 550.491 574.079 555.208 576.94 C 569.132 585.222 572.841 617.174 576.296 632.769 C 580.569 652.329 585.005 671.853 589.602 691.34 C 661.545 685.336 733.626 681.129 805.779 678.722 C 830.886 677.867 857.368 676.413 882.4 677.489 C 907.457 678.567 909.148 719.137 912.483 738.079 C 916.805 761.918 920.848 785.807 924.61 809.741 C 935.33 809.171 948.222 808.184 958.797 808.475 C 968.783 808.873 978.744 810.943 988.737 811.054 C 1052.62 811.759 1116.49 813.153 1180.28 816.993 C 1344.06 826.85 1509.96 843.907 1669.97 881.728 C 1707.4 890.802 1744.56 900.973 1781.39 912.23 C 1794.47 906.201 1803.07 898.334 1808.14 884.82 C 1820.41 852.108 1807.84 809.445 1769.69 802.512 C 1756.99 799.552 1745.06 799.107 1739.58 785.32 C 1734.59 772.777 1743.2 758.315 1755.33 754.715 C 1768.98 750.664 1792.72 759.996 1804.81 766.678 C 1828.5 779.574 1845.98 801.482 1853.3 827.442 C 1861.41 858.044 1857.11 890.616 1841.32 918.058 C 1827.32 942.209 1808.86 952.987 1782.42 959.858 L 1741.99 1169.72 C 1753.91 1174.73 1770.43 1180.26 1782.81 1184.84 L 1903.06 1096.9 C 1919.89 1084.59 1938.41 1069.89 1956.34 1059.33 C 1965.63 1053.91 1984.1 1061.93 1985.39 1072.18 C 1988.13 1093.91 1986.71 1120.99 1986.72 1142.89 L 1986.71 1284.04 L 1986.7 1470.19 C 1986.71 1503.1 1986.79 1535.89 1986.58 1568.91 C 1986.49 1583 1985.48 1593.94 1969.5 1599.01 C 1965.3 1600.26 1958.34 1599.28 1954.63 1597.03 C 1897.12 1562.04 1841.14 1522.39 1783.53 1487.63 C 1747.84 1494.01 1712.01 1499.63 1676.08 1504.49 L 1669.23 1537.74 L 1636.16 1709.14 C 1630.34 1739.36 1625.5 1774.07 1617.62 1803.09 C 1593.71 1891.19 1493.35 1921.93 1415.27 1938.41 C 1322.57 1957.98 1230.68 1965.53 1137.45 1970.71 C 1079.37 1974.41 1021.2 1976.53 963 1977.06 C 828.529 1978.97 692.881 1967.67 559.823 1948.88 C 457.385 1934.4 323.27 1896.46 305.631 1776.67 C 303.497 1762.18 300.026 1746.35 297.1 1731.86 L 266.551 1582.19 L 140.329 962.144 C 95.7254 959.775 70.1598 925.634 62.4441 884.286 C 54.2903 840.59 75.5028 797.055 110.719 771.349 C 139 750.706 173.256 747.777 206.697 742.307 L 211.2 670.719 C 212.388 652.532 210.28 613.265 233.886 608.825 C 258.257 604.241 284.379 601.851 309.091 598.633 C 385.688 588.504 462.503 580.101 539.479 573.43 z" />
    <path transform="translate(0,0)" fill="rgb(28,29,29)"
        d="M 957.381 1007.75 C 1150.67 1000.22 1313.48 1150.77 1321.08 1344.05 C 1328.69 1537.33 1178.21 1700.2 984.933 1707.89 C 791.545 1715.57 628.559 1564.99 620.949 1371.6 C 613.339 1178.21 763.987 1015.28 957.381 1007.75 z" />
    <path transform="translate(0,0)" fill="rgb(215,130,43)"
        d="M 964.605 1093.42 C 1110.33 1090.16 1231.11 1205.65 1234.38 1351.38 C 1237.64 1497.11 1122.16 1617.9 976.429 1621.17 C 830.689 1624.44 709.892 1508.95 706.626 1363.21 C 703.361 1217.47 818.864 1096.68 964.605 1093.42 z" />
    <path transform="translate(0,0)" fill="rgb(28,29,29)"
        d="M 956.809 1170.38 C 1059.81 1162.71 1149.5 1240.03 1157.1 1343.04 C 1164.7 1446.04 1087.32 1535.69 984.309 1543.22 C 881.396 1550.74 791.855 1473.45 784.265 1370.54 C 776.675 1267.63 853.906 1178.04 956.809 1170.38 z" />
    <path transform="translate(0,0)" fill="rgb(215,130,43)"
        d="M 994.237 1220.09 C 999.263 1219.54 1004.39 1219.75 1009.31 1220.93 C 1059.83 1233.02 1098.2 1275.98 1106.1 1327.09 C 1108.41 1341.97 1103.59 1350.66 1089.76 1355.99 C 1086.95 1356.11 1081.4 1356.47 1078.57 1355.32 C 1054.74 1345.62 1064.73 1311.41 1046 1293.68 C 1035.97 1284.19 1033.08 1279.34 1020.67 1272.62 C 1008.42 1265.01 986.051 1265.3 979.136 1250.97 C 972.361 1236.93 982.55 1225.27 994.237 1220.09 z" />
    <path transform="translate(0,0)" fill="rgb(28,29,29)"
        d="M 655.354 878.478 L 658.039 878.25 C 661.624 881.533 660.856 892.391 661.474 897.738 C 663.347 913.907 665.06 930.093 666.614 946.295 L 680.96 1087.24 C 673.865 1094.93 667.073 1102.9 660.599 1111.12 C 595.459 1194.16 565.772 1299.58 578.003 1404.42 C 591.182 1516.72 645.829 1608.42 733.911 1678.06 C 737.513 1705.13 739.808 1735.99 742.56 1763.58 L 758.325 1918.08 C 743.801 1915.99 724.174 1914.72 709.273 1913.32 C 681.223 1910.78 653.206 1907.88 625.229 1904.62 C 603.138 1901.49 581.567 1898.84 559.374 1895.49 C 546.198 1807.83 532.311 1720.28 517.714 1632.85 L 469.297 1330.19 L 423.74 1044.39 C 416.961 1002.21 410.78 953.585 402.662 912.345 C 422.323 907.776 450.003 904.045 470.251 900.831 C 531.66 891.136 593.402 883.68 655.354 878.478 z" />
    <path transform="translate(0,0)" fill="rgb(28,29,29)"
        d="M 358.135 921.341 C 359.542 922.348 359.394 921.828 359.63 923.277 C 365.22 957.592 370.732 992.268 376.159 1026.58 L 405.684 1210.4 L 513.505 1886.49 C 467.522 1876.21 437.602 1865.96 398.605 1836.7 C 372.859 1817.03 359.204 1794.17 353.887 1762.63 C 350.996 1745.47 346.989 1727.65 343.53 1710.52 L 312.415 1555.24 L 232.788 1155.61 C 220.028 1091.83 207.616 1022 193.433 959.225 C 247.95 944.984 302.875 932.351 358.135 921.341 z" />
    <path transform="translate(0,0)" fill="rgb(244,225,192)"
        d="M 1249.38 872.169 C 1304.66 875.697 1385.77 883.208 1440.28 892.212 L 1348.38 1901.92 C 1321.66 1906.63 1292.12 1909.93 1265.2 1912.67 C 1244.19 1914.81 1223.15 1916.63 1202.08 1918.14 C 1205.88 1834.86 1212.46 1751.36 1216.15 1668.32 C 1227.85 1658.53 1239.91 1647.93 1250.45 1636.91 C 1323.92 1561.11 1363.98 1459.05 1361.69 1353.52 C 1359.16 1242.69 1318.67 1144.2 1238.3 1067.34 C 1240.73 1043.44 1241.61 1012.53 1243 988.134 C 1245.44 949.497 1247.57 910.841 1249.38 872.169 z" />
    <path transform="translate(0,0)" fill="rgb(244,225,192)"
        d="M 1583.39 914.654 C 1596.3 916.022 1622.85 921.76 1635.99 924.625 C 1669.04 931.789 1701.9 939.78 1734.55 948.591 C 1729.51 969.607 1724.98 997.059 1720.74 1018.67 L 1690.23 1177.77 L 1614.58 1568.87 L 1587.47 1710.14 C 1584.13 1727.97 1580.56 1746.13 1577.38 1763.96 C 1573.13 1787.73 1570.33 1800.74 1555.84 1820.43 C 1531.35 1851.99 1498.53 1865.29 1461.84 1877.05 C 1464.85 1856.63 1467.18 1834.15 1469.82 1813.47 L 1490.14 1650.3 L 1551.83 1162.57 C 1562.24 1080.77 1571.31 995.864 1583.39 914.654 z" />
    <path transform="translate(0,0)" fill="rgb(28,29,29)"
        d="M 840.876 723.445 C 848.11 722.986 856.755 722.986 864.105 722.791 C 869.13 751.782 873.914 780.814 878.458 809.884 C 816.384 810.294 742.145 816.401 680.006 821.167 C 536.041 832.21 390.172 852.791 249.714 886.508 C 216.402 894.504 175.997 904.946 143.622 915.582 C 121.239 923.272 107.326 884.155 106.864 866.399 C 106.015 833.818 128.414 808.34 158.022 797.473 C 168.119 793.767 183.512 791.946 194.296 790.02 L 262.209 778.176 C 453.604 746.603 646.955 728.316 840.876 723.445 z" />
    <path transform="translate(0,0)" fill="rgb(28,29,29)"
        d="M 1808.08 1221.96 C 1851.74 1188.45 1899.36 1156.56 1942.36 1122.71 L 1942.55 1409.51 C 1942.58 1448.6 1941.09 1499.32 1942.82 1537.48 C 1941.32 1536.56 1936.02 1533.17 1934.71 1532.55 C 1920.3 1532.3 1908.33 1521.7 1900.79 1510.31 C 1870.28 1489.77 1837.81 1470.54 1807.84 1449.81 L 1808.08 1221.96 z" />
    <path transform="translate(0,0)" fill="rgb(203,126,57)"
        d="M 1900.79 1510.31 C 1910.88 1516.76 1925.29 1525.45 1934.71 1532.55 C 1920.3 1532.3 1908.33 1521.7 1900.79 1510.31 z" />
    <path transform="translate(0,0)" fill="rgb(28,29,29)"
        d="M 935.223 863.457 C 938.026 863.452 937.861 863.349 940.353 864.584 C 943.197 870.889 941.762 946.248 941.713 958.762 C 885.705 962.291 823.687 982.4 775.33 1010.9 C 761.93 1018.9 748.977 1027.62 736.528 1037.02 C 733.021 1039.69 726.471 1045.94 723.008 1046.47 L 721.308 1045.17 L 720.673 1039.76 C 715.015 987.055 710.726 925.681 703.49 874.184 C 723.461 871.785 749.519 870.771 770.221 869.517 C 825.176 866.392 880.187 864.371 935.223 863.457 z" />
    <path transform="translate(0,0)" fill="rgb(28,29,29)"
        d="M 782.878 1709.2 C 793.157 1713.34 808.086 1721.49 819.829 1726.47 C 863.427 1744.98 897.799 1752.5 944.377 1757.26 L 944.384 1925.13 C 896.447 1924.19 850.957 1923.31 803.085 1920.38 C 797.426 1872.65 794.696 1823.73 788.746 1775.87 C 786.159 1755.06 783.323 1729.94 782.878 1709.2 z" />
    <path transform="translate(0,0)" fill="rgb(28,29,29)"
        d="M 515.641 621.403 L 527.374 620.419 C 533.709 645.391 538.875 670.908 545.779 695.67 C 458.852 702.819 367.138 715.992 280.831 728.861 C 271.673 730.55 261.456 731.982 252.191 733.467 C 254.815 706.944 255.712 678.228 258.081 651.243 C 290.138 647.774 323.011 642.874 355.138 638.919 C 408.559 632.37 462.065 626.531 515.641 621.403 z" />
    <path transform="translate(0,0)" fill="rgb(244,225,192)"
        d="M 1085.92 1741.17 L 1087.72 1740.88 L 1088.86 1742.02 C 1089.81 1747.72 1088.04 1786.96 1087.81 1795.7 C 1086.62 1838.76 1085.71 1881.82 1085.07 1924.89 C 1052.12 1925.86 1019.18 1927.2 986.262 1928.91 C 986.154 1928.83 986.026 1928.76 985.938 1928.66 C 982.991 1925.03 984.754 1776.04 984.791 1757.88 C 1025.12 1755.57 1047.11 1752.25 1085.92 1741.17 z" />
    <path transform="translate(0,0)" fill="rgb(28,29,29)"
        d="M 1732.61 1214.38 C 1741.53 1218.17 1754.97 1222.6 1764.38 1226.02 C 1763.23 1298.43 1764.11 1373.72 1764.19 1446.3 C 1746.79 1448.76 1729.42 1451.4 1712.08 1454.2 C 1704.3 1455.07 1693.72 1457.13 1685.77 1458.41 C 1690.47 1439.56 1695.7 1404.22 1699.6 1383.94 L 1732.61 1214.38 z" />
    <path transform="translate(0,0)" fill="rgb(244,225,192)"
        d="M 984.053 862.098 C 1024.72 861.481 1067 862.973 1107.7 864.092 C 1104.34 897.838 1102.96 940.535 1101.34 974.753 C 1101.36 978.396 1101.86 977.301 1100.39 980.192 C 1088.47 977.728 1076.35 972.494 1064.29 969.626 C 1037.9 963.353 1011.24 960.272 984.226 958.715 C 983.327 928.062 984.245 893.309 984.053 862.098 z" />
    <path transform="translate(0,0)" fill="rgb(215,130,43)"
        d="M 1106.7 446.357 C 1128 443.016 1156.26 449.201 1174.7 460.184 C 1205.76 478.683 1220.67 502.379 1230.03 536.233 C 1257.64 537.128 1276.63 540.992 1298.73 558.755 C 1319.71 575.84 1332.98 600.623 1335.57 627.564 C 1338.56 655.9 1330.03 684.248 1311.89 706.226 C 1284.11 740.015 1240.3 750.25 1199.05 737.635 C 1191.62 735.361 1181.83 729.171 1175.22 729.281 C 1173.88 729.303 1173.19 731.076 1172.15 732.584 C 1167.71 740.059 1162.46 747.02 1156.49 753.343 C 1120.25 791.266 1057.57 790.407 1020.43 754.465 C 1001.78 736.245 991.096 711.38 990.723 685.306 C 990.576 656.52 1002.41 634.9 1022.25 615.036 C 1019.36 609.291 1016.48 603.598 1014.1 597.63 C 985.964 527.061 1034.4 455.844 1106.7 446.357 z" />
    <path transform="translate(0,0)" fill="rgb(244,225,192)"
        d="M 1114.64 491.377 C 1128.51 490.524 1142.31 493.913 1154.2 501.096 C 1169.35 510.477 1180.27 525.376 1184.64 542.65 C 1186.49 550.239 1186.45 559.064 1188.73 566.373 C 1197.01 592.884 1216.82 583.817 1235 582.288 C 1261.47 581.951 1284.06 598.948 1289.35 624.074 C 1300.49 676.896 1253.2 711.881 1205.04 690.952 C 1189.42 684.164 1176.31 670.406 1158.88 674.928 C 1131.74 689.671 1137.2 729.386 1096.5 734.619 C 1041.61 741.677 1012.43 674.954 1059.18 643.763 C 1063.2 641.082 1068.4 636.797 1071.66 633.195 C 1085.03 615.914 1066.28 599.469 1058.41 584.91 C 1054.78 578.182 1052.97 572.028 1052.06 564.812 C 1049.81 547.497 1054.78 530.019 1065.8 516.472 C 1078.36 500.821 1095.08 493.469 1114.64 491.377 z" />
    <path transform="translate(0,0)" fill="rgb(215,130,43)"
        d="M 698.143 211.401 C 731.696 208.317 767.217 223.665 789.17 248.868 C 803.174 264.944 809.057 279.37 814.776 299.46 C 837.407 299.788 854.865 302.321 874.215 314.9 C 971.847 378.366 914.699 532.497 797.683 503.554 C 792.556 502.286 778.477 495.309 775.207 495.954 L 771.494 501.54 C 744.415 542.3 692.274 557.526 649.26 532.368 C 628.338 520.118 613.133 500.066 606.983 476.615 C 600.123 450.013 606.353 427.577 619.76 404.541 C 615.242 398.34 610.521 392.34 606.434 385.816 C 568.793 325.74 598.766 245.244 663.527 219.373 C 675.83 214.458 685.09 212.727 698.143 211.401 z" />
    <path transform="translate(0,0)" fill="rgb(244,225,192)"
        d="M 700.02 256.349 C 714.462 255.468 728.815 259.158 741.041 266.896 C 763.721 280.989 769.62 302.228 774.332 326.605 C 779.749 354.62 804.483 344.432 823.919 345.206 C 833.689 345.588 843.196 348.486 851.517 353.621 C 896.256 381.315 884.145 459.525 825.884 461.938 C 797.929 463.096 782.136 439.394 758.77 445.16 C 748.652 450.012 741.912 461.049 736.384 470.822 C 705.316 525.748 630.351 492.577 654.769 433.764 C 656.239 430.225 663.008 422.64 665.602 419.07 C 683.712 394.152 656.674 380.593 644.903 362.135 C 619.679 316.956 648.849 262.911 700.02 256.349 z" />
    <path transform="translate(0,0)" fill="rgb(215,130,43)"
        d="M 1198.32 55.3538 L 1199.52 55.228 C 1229.05 52.6095 1258.41 61.9267 1281.03 81.0995 C 1304.73 101.3 1319.59 129.978 1322.42 160.995 C 1325.48 198.067 1309.46 227.905 1286.3 255.133 C 1292.27 268.098 1295.76 278.821 1296.62 293.285 C 1298.13 318.156 1289.68 342.606 1273.12 361.225 C 1238.09 400.567 1181.46 399.684 1143.36 365.032 C 1136.23 358.259 1131.84 352.234 1126.09 344.325 C 1058.97 370.341 992.421 332.665 989.511 259.3 C 988.584 232.43 998.414 206.301 1016.82 186.706 C 1038.74 163.04 1063.07 155.416 1094.31 154.282 C 1106.65 99.6376 1142.26 63.2097 1198.32 55.3538 z" />
    <path transform="translate(0,0)" fill="rgb(244,225,192)"
        d="M 1209.61 100.393 C 1227.4 100.99 1242.84 106.783 1255.83 119.156 C 1267.12 129.91 1274.34 143.212 1276.32 158.777 C 1283.07 211.972 1239.86 219.766 1235.26 247.078 C 1233.01 260.48 1251.04 280.213 1251.07 299.801 C 1251.09 311.977 1247.38 322.895 1238.54 331.472 C 1229.61 340.144 1217.03 345.931 1204.44 345.328 C 1174.8 343.908 1165.86 317.965 1149.12 299.731 C 1148.87 299.466 1148.62 299.208 1148.38 298.946 C 1126.48 282.957 1110.88 306.183 1088.08 307.568 C 1031.18 311.025 1015.61 233.404 1063.75 206.936 C 1084.7 195.418 1093.18 201.7 1114.63 201.289 C 1138.19 200.837 1136.26 170.902 1141.11 154.658 C 1144.41 143.755 1150 133.683 1157.51 125.115 C 1171.7 108.722 1188.45 101.979 1209.61 100.393 z" />
    <path transform="translate(0,0)" fill="rgb(215,130,43)"
        d="M 1489.61 567.978 C 1493.34 536.565 1502.3 511.708 1528.04 491.272 C 1550.24 473.625 1578.66 465.742 1606.78 469.426 C 1634.15 472.911 1658.98 487.198 1675.75 509.104 C 1691.55 529.8 1698.36 555.985 1694.64 581.758 C 1692.88 594.127 1689.4 603.255 1684.45 614.557 C 1704.91 636.323 1717.02 657.225 1716.13 688.231 C 1715.58 713.015 1705.07 736.531 1686.97 753.47 C 1668.65 770.432 1644.31 779.373 1619.37 778.305 C 1610.43 777.926 1603.19 776.21 1594.57 773.8 C 1592.7 773.278 1585.28 770.569 1584.11 770.401 C 1580.47 770.159 1577.68 768.511 1574.26 767.424 C 1551.08 760.051 1556.61 748.39 1546.95 743.121 C 1544.94 742.024 1543.9 741.564 1542.77 739.456 C 1544.61 739.069 1543.82 739.48 1545.15 738.285 C 1543.83 734.494 1543.58 734.648 1540.49 732.267 C 1537.98 731.987 1539.08 732.485 1537.21 730.757 C 1509.43 734.713 1487.13 734.465 1463.22 716.695 C 1445.56 703.342 1433.91 683.536 1430.82 661.614 C 1427.62 639.057 1433.5 616.154 1447.18 597.933 C 1459.1 582.363 1472 575.272 1489.61 567.978 z" />
    <path transform="translate(0,0)" fill="rgb(39,29,26)"
        d="M 1537.21 730.757 C 1540.79 729.499 1539.07 729.503 1542.54 730.483 C 1545.81 734.024 1548.37 738.942 1551.47 743.067 C 1561.39 756.287 1570.69 761.953 1584.11 770.401 C 1580.47 770.159 1577.68 768.511 1574.26 767.424 C 1551.08 760.051 1556.61 748.39 1546.95 743.121 C 1544.94 742.024 1543.9 741.564 1542.77 739.456 C 1544.61 739.069 1543.82 739.48 1545.15 738.285 C 1543.83 734.494 1543.58 734.648 1540.49 732.267 C 1537.98 731.987 1539.08 732.485 1537.21 730.757 z" />
    <path transform="translate(0,0)" fill="rgb(244,225,192)"
        d="M 1586.71 515.287 C 1588.47 515.115 1590.23 515.017 1592 514.993 C 1608.93 514.864 1622.27 520.396 1634.51 532.195 C 1651 548.101 1654.28 569.781 1645.11 590.597 C 1640.25 601.641 1631.72 610.748 1631.97 624.122 C 1632.6 636.178 1647.37 644.296 1655.8 652.532 C 1688.19 684.179 1664.55 732.099 1621.44 732.637 C 1608.81 732.795 1597.31 724.875 1588.44 715.527 C 1580.34 704.769 1577.93 689.503 1567.23 682.645 C 1553.8 674.254 1538.63 682.799 1524.99 685.724 C 1501.85 690.685 1480.45 680.718 1475.91 656.207 C 1474.64 649.184 1475.36 641.947 1477.99 635.313 C 1489.21 606.269 1519.97 613.307 1529.94 597.937 C 1538.06 585.426 1529.59 558.724 1545.42 539.541 C 1557.33 525.101 1567.48 518.373 1586.71 515.287 z" />
    <path transform="translate(0,0)" fill="rgb(215,130,43)"
        d="M 1458.17 176.277 C 1465.51 175.391 1472.92 175.356 1480.26 176.175 C 1506.48 179.299 1522.95 192.409 1538.78 212.402 C 1562.48 205.967 1585.15 209.986 1604.04 226.178 C 1618.23 238.563 1626.95 256.051 1628.3 274.835 C 1629.82 296.783 1622.46 313.357 1608.31 329.529 C 1614.7 340.207 1619 348.002 1621.18 360.467 C 1624.3 377.821 1620.27 395.703 1610.01 410.038 C 1585.75 444.146 1544.54 447.443 1511.53 423.842 L 1501.05 414.981 C 1480.87 439.352 1454.11 454.995 1421.56 449.428 C 1401.19 445.821 1383.11 434.178 1371.4 417.114 C 1343.88 377.192 1356.32 333.062 1395.14 306.677 C 1390.28 296.612 1386.58 288.062 1384.48 276.997 C 1380.25 254.585 1385.18 231.411 1398.17 212.663 C 1413.28 190.52 1432.66 181.18 1458.17 176.277 z" />
    <path transform="translate(0,0)" fill="rgb(28,29,29)"
        d="M 1460.84 205.279 C 1479.02 203.722 1496.73 206.899 1508.37 222.388 C 1515.57 231.973 1521.84 244.423 1535.86 242.551 C 1542.34 241.685 1548.92 239.367 1555.33 238.697 C 1565.08 237.687 1574.83 240.689 1582.33 247.015 C 1601.99 263.278 1605.52 287.537 1587.9 306.324 C 1582.79 311.78 1576.1 321.26 1576.17 328.942 C 1576.3 343.866 1592.2 353.865 1592.82 368.974 C 1593.24 379.172 1590.3 387.969 1583.58 395.779 C 1576.75 403.861 1566.87 408.743 1556.3 409.258 C 1538.31 410.062 1527.18 398.833 1514.73 387.952 C 1491.76 372.337 1483.94 390.965 1469.34 405.681 C 1454.04 421.111 1430.25 425.185 1411.01 414.338 C 1399.84 407.997 1391.78 397.321 1388.76 384.838 C 1384.24 366.89 1389.59 347.087 1404.73 335.743 C 1411.2 330.899 1422.62 327.436 1426.17 320.057 C 1433.25 305.357 1418.74 291.415 1414.71 274.935 C 1411.04 259.831 1413.77 243.88 1422.27 230.863 C 1431.46 216.817 1444.71 208.838 1460.84 205.279 z" />
    <path transform="translate(0,0)" fill="rgb(215,130,43)"
        d="M 426.69 306.327 C 427.459 306.261 428.227 306.195 428.995 306.128 C 445.075 305.604 460.719 311.4 472.576 322.274 C 491.023 338.917 501.955 367.745 502.486 392.137 C 504.007 462.044 451.996 523.189 381.614 526.171 C 363.983 539.199 348.233 548.981 326.054 551.286 C 324.329 551.278 322.604 551.248 320.88 551.198 C 231.508 548.451 226.839 431.872 296.817 396.296 C 319.579 384.724 334.645 383.695 359.421 384.943 C 365.601 344.775 383.577 312.379 426.69 306.327 z" />
    <path transform="translate(0,0)" fill="rgb(28,29,29)"
        d="M 425.248 343.121 C 446.952 341.558 458.508 355.619 463.56 375.353 C 469.368 398.667 465.645 423.335 453.213 443.897 C 441.051 464.428 420.637 482.65 396.375 486.955 C 388.921 488.278 375.327 487.622 368.999 491.175 C 349.583 502.077 350.137 508.474 327.142 514.312 C 318.566 514.419 312.868 514.098 304.627 510.699 C 282.914 501.743 281.973 472.975 290.036 454.116 C 298.941 433.289 320.22 422.167 342.068 420.981 C 353.713 420.349 366.575 423.011 377.711 418.244 C 398.135 408.95 394.504 383.571 401.85 366.005 C 407.285 353.009 413.213 348.324 425.248 343.121 z" />
</svg>